<svg width="40" height="40" viewBox="0 0 40 40" fill="none" xmlns="http://www.w3.org/2000/svg">
<mask id="mask0_260_339" style="mask-type:alpha" maskUnits="userSpaceOnUse" x="0" y="0" width="40" height="40">
<rect width="40" height="40" fill="#D9D9D9"/>
</mask>
<g mask="url(#mask0_260_339)">
<path d="M22.796 27.5225L21.8537 26.7266C21.1627 27.5493 20.8222 28.5161 20.6549 29.3926L21.8659 29.6221C22.0063 28.8848 22.2882 28.123 22.796 27.5225Z" fill="white"/>
<path d="M26.0663 25.6548L25.3399 24.6587C25.0055 24.9028 24.599 25.1103 24.0997 25.2666C23.6981 25.3911 23.3356 25.5522 23.0108 25.7451L23.6419 26.8047C23.8799 26.6631 24.1521 26.5398 24.4635 26.4434C25.0836 26.253 25.6171 25.982 26.0663 25.6548Z" fill="white"/>
<path d="M26.8158 21.7217C26.7841 22.448 26.579 23.2232 26.1212 23.8677L27.1283 24.5781C27.7509 23.6943 28.0072 22.6884 28.0475 21.773L26.8158 21.7217Z" fill="white"/>
<path d="M13.078 30.1763C12.8973 29.2241 12.514 28.4013 12.027 27.7056L11.0174 28.4123V28.4136C11.4178 28.9849 11.7206 29.6392 11.867 30.4058L13.078 30.1763Z" fill="white"/>
<path d="M9.07409 25.1409L8.47229 26.2163C9.08143 26.5581 9.73331 27.0049 10.2997 27.5664L11.1676 26.6899C10.4974 26.0284 9.75651 25.523 9.07409 25.1409Z" fill="white"/>
<path d="M39.9848 34.3316L39.3049 32.8374L32.2309 17.2539H22.3663C22.2333 17.4883 22.1124 17.7105 21.972 17.9497C21.5924 18.5991 21.2409 19.1875 20.9149 19.7197H26.3727L26.3629 19.7295C26.4545 19.8173 26.6242 20.1372 26.7157 20.5571L27.9169 20.2837C27.8693 20.0834 27.8107 19.8979 27.7448 19.7197H30.6427L36.269 32.1135H20.7624L21.7938 31.9536L21.7926 31.9438C21.7841 31.8779 21.7377 31.5263 21.7377 31.0283C21.7377 30.9648 21.7389 30.9001 21.7401 30.833L20.5084 30.8049C20.5059 30.8818 20.5059 30.9551 20.5059 31.0283C20.5059 31.5984 20.5572 32.0048 20.5719 32.1135H13.1574C13.1769 31.9121 13.1903 31.7144 13.1927 31.5215L11.9599 31.5044C11.9574 31.6997 11.9416 31.9048 11.9184 32.1135H3.7311L6.75603 25.4497C6.93673 25.5107 7.16743 25.5962 7.43478 25.7085L7.91696 24.5757C7.6704 24.4707 7.45306 24.3877 7.26751 24.3218L9.35735 19.7198H12.392C12.0674 19.1875 11.7158 18.5991 11.3349 17.9498C11.1945 17.7105 11.0737 17.4884 10.9406 17.254H7.76798L0.0152445 34.3316C-0.00920861 34.3865 -0.00428674 34.4487 0.027432 34.5C0.0604008 34.5488 0.115323 34.5781 0.175166 34.5781H39.8249C39.8847 34.5781 39.9396 34.5488 39.9726 34.5C40.0043 34.4487 40.0092 34.3865 39.9848 34.3316Z" fill="white"/>
<path d="M16.6535 23.6138C17.0441 23.6138 24.8688 12.1758 24.8688 7.63719C24.8688 3.10109 21.1908 -0.578125 16.6535 -0.578125C12.1149 -0.578125 8.43689 3.10109 8.43689 7.63719C8.43689 12.1758 16.2628 23.6138 16.6535 23.6138ZM13.5113 7.63719C13.5113 5.90133 14.9188 4.49508 16.6535 4.49508C18.3893 4.49508 19.7967 5.90133 19.7967 7.63719C19.7967 9.37305 18.3892 10.7805 16.6535 10.7805C14.9188 10.7805 13.5113 9.37305 13.5113 7.63719Z" fill="white"/>
</g>
</svg>
