<svg width="32" height="32" viewBox="0 0 32 32" fill="none" xmlns="http://www.w3.org/2000/svg">
<path fill-rule="evenodd" clip-rule="evenodd" d="M15.9523 0.510132C7.1311 0.510132 0 7.69381 0 16.581C0 23.685 4.56914 29.6984 10.9078 31.8267C11.7002 31.9867 11.9905 31.4809 11.9905 31.0554C11.9905 30.6829 11.9644 29.4058 11.9644 28.0752C7.52686 29.0332 6.60278 26.1594 6.60278 26.1594C5.88963 24.2969 4.83298 23.8182 4.83298 23.8182C3.38057 22.8337 4.93878 22.8337 4.93878 22.8337C6.54988 22.9402 7.39527 24.4834 7.39527 24.4834C8.82123 26.931 11.119 26.2394 12.0434 25.8136C12.1753 24.7759 12.5982 24.0576 13.0472 23.6585C9.50792 23.286 5.78416 21.9025 5.78416 15.7294C5.78416 13.9733 6.41763 12.5366 7.42139 11.4192C7.26302 11.0202 6.70825 9.37021 7.58008 7.16189C7.58008 7.16189 8.92702 6.73609 11.9641 8.81152C13.2644 8.45974 14.6053 8.28078 15.9523 8.27927C17.2993 8.27927 18.6723 8.46572 19.9402 8.81152C22.9776 6.73609 24.3246 7.16189 24.3246 7.16189C25.1964 9.37021 24.6413 11.0202 24.4829 11.4192C25.5131 12.5366 26.1205 13.9733 26.1205 15.7294C26.1205 21.9025 22.3967 23.2592 18.831 23.6585C19.4122 24.164 19.9138 25.1217 19.9138 26.6385C19.9138 28.7936 19.8877 30.5232 19.8877 31.0551C19.8877 31.4809 20.1783 31.9867 20.9705 31.827C27.3091 29.698 31.8782 23.685 31.8782 16.581C31.9043 7.69381 24.7471 0.510132 15.9523 0.510132Z" fill="#015591"/>
</svg>
