<svg width="40" height="44" viewBox="0 0 40 44" fill="none" xmlns="http://www.w3.org/2000/svg">
<mask id="mask0_260_285" style="mask-type:alpha" maskUnits="userSpaceOnUse" x="0" y="0" width="40" height="44">
<rect width="40" height="44" fill="#D9D9D9"/>
</mask>
<g mask="url(#mask0_260_285)">
<path d="M2.04007 21.1831C2.17009 20.5157 2.60349 19.9639 3.19199 19.7162L5.25638 18.8492V21.1428L4.8655 21.307C4.68913 21.3815 4.55904 21.5471 4.52042 21.7468C4.4818 21.9471 4.5384 22.1559 4.67238 22.3006L17.918 36.6148C18.1801 36.8973 18.5715 36.9864 18.9174 36.8417L34.1456 30.441C34.9923 30.0944 34.9929 28.8496 34.8867 27.2379C34.794 25.842 34.3793 24.0133 32.9408 24.0995L19.802 29.622C18.6243 30.1168 17.2876 29.8106 16.3964 28.8419L3.69744 15.0273C3.25317 14.5444 3.06389 13.8513 3.19459 13.1853C3.32529 12.5187 3.75801 11.9682 4.34528 11.7219L17.4036 6.23351C18.5813 5.73868 19.9186 6.0449 20.8092 7.01358L35.5203 23.016C36.6838 24.0508 37 25.9805 37 27.6944C37 29.4083 36.8944 31.4654 35.0966 32.2649L35.5203 32.1577L19.795 38.7665C18.6206 39.2598 17.2876 38.9571 16.3964 37.994L2.54743 23.0272C2.10118 22.5449 1.90998 21.8511 2.04007 21.1831Z" fill="white"/>
</g>
</svg>
